<?xml version="1.0" encoding="UTF-8" standalone="no"?>
<svg width="16px" height="16px" viewBox="0 0 16 16" version="1.1" xmlns="http://www.w3.org/2000/svg" xmlns:xlink="http://www.w3.org/1999/xlink" xmlns:sketch="http://www.bohemiancoding.com/sketch/ns">
    <!-- Generator: Sketch 3.5.1 (25234) - http://www.bohemiancoding.com/sketch -->
    <title>open</title>
    <desc>Created with Sketch.</desc>
    <defs></defs>
    <g id="Page-1" stroke="none" stroke-width="1" fill="none" fill-rule="evenodd" sketch:type="MSPage">
        <g id="open" sketch:type="MSArtboardGroup">
            <path d="M15.6200263,5.86435857 L8.9345318,12.2285136 C8.67436922,12.4761714 8.36285873,12.6000004 8.00000032,12.6000004 C7.63029555,12.6000004 7.32220825,12.4761714 7.07573841,12.2285136 L0.390243918,5.86435857 C0.130081306,5.62973534 0,5.3364563 0,4.98452146 C0,4.63910394 0.130081306,4.34256625 0.390243918,4.0949084 L1.1501926,3.36171081 C1.4172016,3.12057027 1.72871209,3 2.08472409,3 C2.44758247,3 2.75566977,3.12057027 3.008986,3.36171081 L8.00000032,8.11283116 L12.9910147,3.36171081 C13.2443308,3.12057027 13.5524181,3 13.9152766,3 C14.2712886,3 14.5827991,3.12057027 14.849808,3.36171081 L15.6200263,4.0949084 C15.8733426,4.34908356 16.0000006,4.64562125 16.0000006,4.98452146 C16.0000006,5.329939 15.8733426,5.62321802 15.6200263,5.86435857 Z" id="Shape" fill="#7ED321" sketch:type="MSShapeGroup"></path>
            <path d="M16.0000006,7.98452146 C16.0000006,8.329939 15.8733426,8.62321802 15.6200263,8.86435857 L8.9345318,15.2285136 C8.67436922,15.4761714 8.36285873,15.6000004 8.00000032,15.6000004 C7.63029555,15.6000004 7.32220825,15.4761714 7.07573841,15.2285136 L0.390243918,8.86435857 C0.130081306,8.62973534 0,8.3364563 0,7.98452146 C0,7.63910394 0.130081306,7.34256625 0.390243918,7.0949084 L1.1501926,6.36171081 C1.4172016,6.12057027 1.72871209,6 2.08472409,6 C2.44758247,6 2.75566977,6.12057027 3.008986,6.36171081 L8.00000032,11.1128312 L12.9910147,6.36171081 C13.2443308,6.12057027 13.5524181,6 13.9152766,6 C14.2712886,6 14.5827991,6.12057027 14.849808,6.36171081 L15.6200263,7.0949084 C15.8733426,7.34908356 16.0000006,7.64562125 16.0000006,7.98452146 L16.0000006,7.98452146 L16.0000006,7.98452146 Z" id="Shape" fill="#417505" sketch:type="MSShapeGroup"></path>
        </g>
    </g>
</svg>