<?xml version="1.0" encoding="UTF-8" standalone="no"?>
<svg width="100px" height="100px" viewBox="0 0 100 100" version="1.1" xmlns="http://www.w3.org/2000/svg" xmlns:xlink="http://www.w3.org/1999/xlink" xmlns:sketch="http://www.bohemiancoding.com/sketch/ns">
    <!-- Generator: Sketch 3.5.1 (25234) - http://www.bohemiancoding.com/sketch -->
    <title>Artboard 1</title>
    <desc>Created with Sketch.</desc>
    <defs></defs>
    <g id="Page-1" stroke="none" stroke-width="1" fill="none" fill-rule="evenodd" sketch:type="MSPage">
        <g id="Artboard-1" sketch:type="MSArtboardGroup" fill="#000000">
            <path d="M100,31.029525 C100,33.2973898 99.2083868,35.2229354 97.6251605,36.8061617 L55.8408216,78.5905006 C54.2148053,80.2165169 52.2678648,81.029525 50,81.029525 C47.6893453,81.029525 45.7637997,80.2165169 44.2233633,78.5905006 L2.43902439,36.8061617 C0.81300813,35.2657253 0,33.3401797 0,31.029525 C0,28.7616602 0.81300813,26.8147197 2.43902439,25.1887035 L7.18870347,20.3748395 C8.85750963,18.7916132 10.8044501,18 13.029525,18 C15.2973898,18 17.2229354,18.7916132 18.8061617,20.3748395 L50,51.5686778 L81.1938383,20.3748395 C82.7770646,18.7916132 84.7026102,18 86.970475,18 C89.1955499,18 91.1424904,18.7916132 92.8112965,20.3748395 L97.6251605,25.1887035 C99.2083868,26.8575096 100,28.8044501 100,31.029525 L100,31.029525 Z" id="Shape" sketch:type="MSShapeGroup"></path>
        </g>
    </g>
</svg>